<svg width="13" height="12" viewBox="0 0 13 12" fill="none" xmlns="http://www.w3.org/2000/svg">
<path d="M13.9118 5.64565L12.635 4.55253L7.54752 0.192234C7.47634 0.131289 7.39183 0.082944 7.29883 0.0499603C7.20582 0.0169766 7.10614 0 7.00548 0C6.90481 0 6.80513 0.0169766 6.71212 0.0499603C6.61912 0.082944 6.53461 0.131289 6.46344 0.192234L1.36826 4.54972L0.0881683 5.64565C0.0301404 5.69897 -0.00145042 5.76948 5.11804e-05 5.84235C0.00155278 5.91521 0.0360296 5.98473 0.0962181 6.03626C0.156407 6.08779 0.237608 6.1173 0.322714 6.11859C0.40782 6.11987 0.490187 6.09283 0.552461 6.04315L1.2719 5.42721V11.3438C1.2719 11.5178 1.35265 11.6847 1.49641 11.8078C1.64016 11.9309 1.83512 12 2.03842 12H5.02895C5.23224 12 5.42721 11.9309 5.57096 11.8078C5.71471 11.6847 5.79547 11.5178 5.79547 11.3438V7.59377C5.79547 7.5689 5.807 7.54506 5.82754 7.52748C5.84807 7.5099 5.87593 7.50002 5.90497 7.50002H8.09503C8.12407 7.50002 8.15193 7.5099 8.17246 7.52748C8.193 7.54506 8.20453 7.5689 8.20453 7.59377V11.3438C8.20453 11.5178 8.28529 11.6847 8.42904 11.8078C8.57279 11.9309 8.76776 12 8.97106 12H11.9649C12.0655 12 12.1652 11.983 12.2582 11.95C12.3512 11.9171 12.4357 11.8687 12.5069 11.8078C12.5781 11.7469 12.6345 11.6745 12.673 11.5949C12.7116 11.5153 12.7314 11.4299 12.7314 11.3438V5.43003L13.4475 6.04315C13.5098 6.09283 13.5922 6.11987 13.6773 6.11859C13.7624 6.1173 13.8436 6.08779 13.9038 6.03626C13.964 5.98473 13.9984 5.91521 13.9999 5.84235C14.0015 5.76948 13.9699 5.69897 13.9118 5.64565ZM12.0744 11.3438C12.0744 11.3686 12.0628 11.3925 12.0423 11.41C12.0218 11.4276 11.9939 11.4375 11.9649 11.4375H8.97106C8.94201 11.4375 8.91416 11.4276 8.89362 11.41C8.87309 11.3925 8.86155 11.3686 8.86155 11.3438V7.59377C8.86155 7.41972 8.78079 7.2528 8.63704 7.12973C8.49329 7.00666 8.29832 6.93752 8.09503 6.93752H5.90497C5.70168 6.93752 5.50671 7.00666 5.36296 7.12973C5.21921 7.2528 5.13845 7.41972 5.13845 7.59377V11.3438C5.13845 11.3686 5.12691 11.3925 5.10638 11.41C5.08584 11.4276 5.05799 11.4375 5.02895 11.4375H2.03842C2.00938 11.4375 1.98152 11.4276 1.96099 11.41C1.94045 11.3925 1.92891 11.3686 1.92891 11.3438V4.86565L6.92225 0.589733C6.94277 0.572272 6.97052 0.562471 6.99945 0.562471C7.02838 0.562471 7.05614 0.572272 7.07665 0.589733L12.0733 4.86753L12.0744 11.3438Z" fill="#00A03B"/>
</svg>
