<svg width="44" height="71" viewBox="0 0 44 71" fill="none" xmlns="http://www.w3.org/2000/svg">
<path fill-rule="evenodd" clip-rule="evenodd" d="M3.91307 10.9156V59.5234L23.6584 66.1599V4.45852L3.91307 10.9156ZM1.57952 8.04581C0.861508 8.22517 0.322998 8.94263 0.322998 9.66008V60.9583C0.322998 61.6758 0.861508 62.3932 1.57952 62.5726L24.915 70.2853C25.992 70.644 27.2485 69.7472 27.2485 68.671V1.94742C27.2485 0.691864 25.992 -0.204958 24.915 0.333135L1.57952 8.04581Z" fill="#00A03B"/>
<path d="M18.2733 29.928C19.3503 29.928 20.0683 31.5423 20.0683 33.5153C20.0683 35.4883 19.3503 37.1026 18.2733 37.1026C17.1963 37.1026 16.4783 35.4883 16.4783 33.5153C16.4783 31.5423 17.1963 29.928 18.2733 29.928Z" fill="#00A03B"/>
<path fill-rule="evenodd" clip-rule="evenodd" d="M27.2485 10.1979H39.8138V58.6263H27.2485V62.2136H43.4038V6.6106H27.2485V10.1979Z" fill="#00A03B"/>
</svg>
