<svg width="44" height="71" viewBox="0 0 44 71" fill="none" xmlns="http://www.w3.org/2000/svg">
<path fill-rule="evenodd" clip-rule="evenodd" d="M20.6217 4.55804V66.4388L40.3518 59.8023V11.0152L20.6217 4.55804ZM19.3662 0.253292C18.29 -0.105436 17.0344 0.791386 17.0344 2.04694V68.7705C17.0344 70.026 18.29 70.9229 19.3662 70.3848L42.6835 62.6721C43.401 62.4927 43.9391 61.7753 43.9391 61.0578V9.75961C43.9391 9.04215 43.401 8.32469 42.6835 8.14533L19.3662 0.253292Z" fill="#00A03B"/>
<path d="M27.7963 33.6149C27.7963 35.5879 27.0788 37.2022 26.0026 37.2022C24.9264 37.2022 24.209 35.5879 24.209 33.6149C24.209 31.6419 24.9264 30.0276 26.0026 30.0276C27.0788 30.0276 27.7963 31.6419 27.7963 33.6149Z" fill="#00A03B"/>
<path fill-rule="evenodd" clip-rule="evenodd" d="M17.0344 6.71021H0.891602V62.3132H17.0344V58.7259H4.47889V10.2975H17.0344V6.71021Z" fill="#00A03B"/>
</svg>
