<svg xmlns="http://www.w3.org/2000/svg" width="20" height="20" viewBox="0 0 448 512">
  <path fill="#00A03B" d="M 427.84 380.67 l -196.5 97.82 a 18.6 18.6 0 0 1 -14.67 0 L 20.16 380.67 c -4 -2 -4 -5.28 0 -7.29 L 67.22 350 a 18.65 18.65 0 0 1 14.69 0 l 134.76 67 a 18.51 18.51 0 0 0 14.67 0 l 134.76 -67 a 18.62 18.62 0 0 1 14.68 0 l 47.06 23.43 c 4.05 1.96 4.05 5.24 0 7.24 Z m 0 -136.53 l -47.06 -23.43 a 18.62 18.62 0 0 0 -14.68 0 l -134.76 67.08 a 18.68 18.68 0 0 1 -14.67 0 L 81.91 220.71 a 18.65 18.65 0 0 0 -14.69 0 l -47.06 23.43 c -4 2 -4 5.29 0 7.31 l 196.51 97.8 a 18.6 18.6 0 0 0 14.67 0 l 196.5 -97.8 c 4.05 -2.02 4.05 -5.3 0 -7.31 Z M 20.16 130.42 l 196.5 90.29 a 20.08 20.08 0 0 0 14.67 0 l 196.51 -90.29 c 4 -1.86 4 -4.89 0 -6.74 L 231.33 33.4 a 19.88 19.88 0 0 0 -14.67 0 l -196.5 90.28 c -4.05 1.85 -4.05 4.88 0 6.74 Z" />
</svg>