<svg width="20" height="59" viewBox="0 0 20 59" fill="none" xmlns="http://www.w3.org/2000/svg">
<path fill-rule="evenodd" clip-rule="evenodd" d="M2.54886 12.1153V56.0831L16.5676 51.3677V16.7032L2.54886 12.1153ZM1.65676 9.05667C0.892099 8.80178 0 9.43899 0 10.3311V57.7398C0 58.632 0.892099 59.2692 1.65676 58.8868L18.2243 53.4068C18.7341 53.2794 19.1164 52.7696 19.1164 52.2598V15.8111C19.1164 15.3014 18.7341 14.7916 18.2243 14.6642L1.65676 9.05667Z" fill="#00A03B"/>
<path d="M7.64651 2.76089C7.64651 4.16277 7.13674 5.30975 6.37209 5.30975C5.60743 5.30975 5.09766 4.16277 5.09766 2.76089C5.09766 1.35902 5.60743 0.212036 6.37209 0.212036C7.13674 0.212036 7.64651 1.35902 7.64651 2.76089Z" fill="#00A03B"/>
</svg>
